<svg xmlns="http://www.w3.org/2000/svg" width="12" height="12" viewBox="0 0 12 12">
  <path id="합치기_49" data-name="합치기 49" d="M4.906,12a1.775,1.775,0,0,1-1.773-1.773V4.906A1.775,1.775,0,0,1,4.906,3.133h5.321A1.775,1.775,0,0,1,12,4.906v5.321A1.775,1.775,0,0,1,10.227,12ZM4.019,4.906v5.321a.887.887,0,0,0,.886.887h5.321a.887.887,0,0,0,.887-.887V4.906a.887.887,0,0,0-.887-.886H4.906A.887.887,0,0,0,4.019,4.906ZM3,10H2A2,2,0,0,1,0,8V2A2,2,0,0,1,2,0H8a2,2,0,0,1,2,2V3H9V2A1,1,0,0,0,8,1H2A1,1,0,0,0,1,2V8A1,1,0,0,0,2,9H3v1H3Z" fill="#fff"/>
</svg>
